<mxfile host="app.diagrams.net" agent="Mozilla/5.0 (Windows NT 10.0; Win64; x64; rv:135.0) Gecko/20100101 Firefox/135.0" version="26.0.16">
  <diagram name="PÃ¡gina-1" id="Ozaj9KtFnUqV6dgMVkIT">
    <mxGraphModel dx="1434" dy="782" grid="1" gridSize="10" guides="1" tooltips="1" connect="1" arrows="1" fold="1" page="1" pageScale="1" pageWidth="827" pageHeight="1169" math="0" shadow="0">
      <root>
        <mxCell id="0" />
        <mxCell id="1" parent="0" />
        <mxCell id="Cn9_VNKBqU6tYOXefli3-2" value="" style="rounded=0;whiteSpace=wrap;html=1;rotation=-90;fillColor=default;fillStyle=dashed;" vertex="1" parent="1">
          <mxGeometry x="220" y="110" width="405" height="310" as="geometry" />
        </mxCell>
        <mxCell id="Cn9_VNKBqU6tYOXefli3-3" value="Actor" style="shape=umlActor;verticalLabelPosition=bottom;verticalAlign=top;html=1;outlineConnect=0;" vertex="1" parent="1">
          <mxGeometry x="170" y="280" width="30" height="60" as="geometry" />
        </mxCell>
        <mxCell id="Cn9_VNKBqU6tYOXefli3-6" value="Autentificar" style="ellipse;whiteSpace=wrap;html=1;" vertex="1" parent="1">
          <mxGeometry x="280" y="285" width="100" height="50" as="geometry" />
        </mxCell>
        <mxCell id="Cn9_VNKBqU6tYOXefli3-10" value="Verificar Cupon" style="ellipse;whiteSpace=wrap;html=1;" vertex="1" parent="1">
          <mxGeometry x="456" y="285" width="88" height="50" as="geometry" />
        </mxCell>
        <mxCell id="Cn9_VNKBqU6tYOXefli3-11" value="" style="endArrow=none;html=1;rounded=0;exitX=1;exitY=0.5;exitDx=0;exitDy=0;" edge="1" parent="1" source="Cn9_VNKBqU6tYOXefli3-6" target="Cn9_VNKBqU6tYOXefli3-10">
          <mxGeometry width="50" height="50" relative="1" as="geometry">
            <mxPoint x="410" y="340" as="sourcePoint" />
            <mxPoint x="460" y="290" as="targetPoint" />
          </mxGeometry>
        </mxCell>
        <mxCell id="Cn9_VNKBqU6tYOXefli3-19" value="Comprar producto con descuento" style="ellipse;whiteSpace=wrap;html=1;" vertex="1" parent="1">
          <mxGeometry x="440" y="90" width="120" height="80" as="geometry" />
        </mxCell>
        <mxCell id="Cn9_VNKBqU6tYOXefli3-20" value="Comprar producto sin descuento" style="ellipse;whiteSpace=wrap;html=1;" vertex="1" parent="1">
          <mxGeometry x="447" y="400" width="106" height="60" as="geometry" />
        </mxCell>
        <mxCell id="Cn9_VNKBqU6tYOXefli3-23" value="" style="endArrow=none;html=1;rounded=0;" edge="1" parent="1" source="Cn9_VNKBqU6tYOXefli3-20" target="Cn9_VNKBqU6tYOXefli3-10">
          <mxGeometry width="50" height="50" relative="1" as="geometry">
            <mxPoint x="460" y="380" as="sourcePoint" />
            <mxPoint x="510" y="330" as="targetPoint" />
          </mxGeometry>
        </mxCell>
        <mxCell id="Cn9_VNKBqU6tYOXefli3-28" value="" style="endArrow=blockThin;html=1;strokeColor=#475E75;bendable=1;rounded=0;endFill=1;endSize=4;edgeStyle=entityRelationEdgeStyle;startArrow=none;startFill=0;startSize=4;jumpStyle=none;jumpSize=0;targetPerimeterSpacing=15;dashed=1;strokeWidth=1.5;dashPattern=1 4;exitX=0.341;exitY=-0.02;exitDx=0;exitDy=0;entryX=0.5;entryY=1;entryDx=0;entryDy=0;exitPerimeter=0;" edge="1" parent="1" source="Cn9_VNKBqU6tYOXefli3-10" target="Cn9_VNKBqU6tYOXefli3-19">
          <mxGeometry width="50" height="50" relative="1" as="geometry">
            <mxPoint x="551" y="330" as="sourcePoint" />
            <mxPoint x="567" y="160" as="targetPoint" />
            <Array as="points">
              <mxPoint x="547" y="290" />
            </Array>
          </mxGeometry>
        </mxCell>
        <mxCell id="Cn9_VNKBqU6tYOXefli3-31" value="Text" style="edgeLabel;html=1;align=center;verticalAlign=middle;resizable=0;points=[];" vertex="1" connectable="0" parent="Cn9_VNKBqU6tYOXefli3-28">
          <mxGeometry x="-0.3637" y="-2" relative="1" as="geometry">
            <mxPoint as="offset" />
          </mxGeometry>
        </mxCell>
        <mxCell id="Cn9_VNKBqU6tYOXefli3-33" value="Extend" style="edgeLabel;html=1;align=center;verticalAlign=middle;resizable=0;points=[];" vertex="1" connectable="0" parent="Cn9_VNKBqU6tYOXefli3-28">
          <mxGeometry x="-0.4" y="-5" relative="1" as="geometry">
            <mxPoint as="offset" />
          </mxGeometry>
        </mxCell>
        <mxCell id="Cn9_VNKBqU6tYOXefli3-29" value="" style="edgeStyle=elbowEdgeStyle;fontSize=12;html=1;endFill=0;startFill=0;endSize=6;startSize=6;dashed=1;dashPattern=1 4;endArrow=openThin;startArrow=none;rounded=0;entryX=0;entryY=0.5;entryDx=0;entryDy=0;elbow=horizontal;" edge="1" parent="1" source="Cn9_VNKBqU6tYOXefli3-3" target="Cn9_VNKBqU6tYOXefli3-6">
          <mxGeometry width="160" relative="1" as="geometry">
            <mxPoint x="190" y="310" as="sourcePoint" />
            <mxPoint x="350" y="310" as="targetPoint" />
          </mxGeometry>
        </mxCell>
        <mxCell id="Cn9_VNKBqU6tYOXefli3-30" value="Includ" style="edgeLabel;html=1;align=center;verticalAlign=middle;resizable=0;points=[];" vertex="1" connectable="0" parent="Cn9_VNKBqU6tYOXefli3-29">
          <mxGeometry x="-0.375" y="-5" relative="1" as="geometry">
            <mxPoint as="offset" />
          </mxGeometry>
        </mxCell>
      </root>
    </mxGraphModel>
  </diagram>
</mxfile>
